<?xml version="1.0" standalone="no"?>
<!DOCTYPE svg PUBLIC "-//W3C//DTD SVG 20010904//EN"
 "http://www.w3.org/TR/2001/REC-SVG-20010904/DTD/svg10.dtd">
<svg version="1.0" xmlns="http://www.w3.org/2000/svg"
 width="512.000000pt" height="512.000000pt" viewBox="0 0 512.000000 512.000000"
 preserveAspectRatio="xMidYMid meet">

<g transform="translate(0.000000,512.000000) scale(0.100000,-0.100000)"
fill="#000000" stroke="none">
<path d="M3374 4910 c-32 -5 -340 -132 -855 -355 -876 -378 -903 -391 -1037
-527 -207 -209 -305 -446 -305 -738 0 -225 54 -404 176 -585 93 -138 278 -297
418 -359 30 -13 236 -94 459 -180 222 -87 406 -158 408 -160 1 -2 -176 -146
-395 -321 -219 -174 -411 -331 -426 -348 -171 -190 -161 -480 23 -650 126
-117 307 -157 463 -103 55 19 1038 555 1138 621 201 132 360 356 426 601 23
87 27 118 27 259 0 136 -3 173 -23 249 -77 297 -264 539 -518 672 -43 23 -253
108 -468 189 -214 81 -393 150 -397 154 -4 3 267 201 602 439 335 238 627 453
650 478 23 25 53 71 68 102 23 50 26 71 26 162 1 94 -2 111 -26 162 -36 77
-70 121 -129 164 -84 61 -199 90 -305 74z"/>
<path d="M1465 1064 c-66 -53 -123 -99 -128 -103 -4 -4 7 -36 25 -71 31 -59
33 -70 33 -159 0 -127 -20 -169 -132 -276 l-83 -80 59 -59 60 -60 116 60 116
59 102 0 c92 0 107 -3 155 -28 l52 -28 112 62 111 62 -59 17 c-188 51 -353
213 -408 398 -21 73 -29 187 -17 247 5 27 8 51 7 52 -1 1 -56 -41 -121 -93z
m-202 -633 l-62 -58 50 -49 50 -49 31 18 c17 10 32 16 34 14 2 -2 -12 -12 -31
-23 l-35 -18 -55 54 -56 55 63 57 c35 31 65 57 68 57 3 0 -23 -26 -57 -58z
m177 -86 c0 -2 -13 -11 -30 -20 -38 -19 -40 -11 -2 9 31 17 32 18 32 11z"/>
</g>
</svg>
